HIERARCHY
ROOT Elbow
{
	OFFSET	0.00	0.00	0.00
	CHANNELS 6 Xposition Yposition Zposition Zrotation Xrotation Yrotation
	JOINT L_Wrist
	{
		OFFSET	 0.208349	 0.000000	 0.000000
		CHANNELS 3 Zrotation Xrotation Yrotation
		JOINT L_index_Proximal
		{
			OFFSET	 0.093499	 0.010637	-0.002084
			CHANNELS 3 Zrotation Xrotation Yrotation
			JOINT L_index_b
			{
				OFFSET	 0.033152	 0.000000	 0.000000
				CHANNELS 3 Zrotation Xrotation Yrotation
				JOINT L_index_c
				{
					OFFSET	 0.018651	 0.000000	 0.000000
					CHANNELS 3 Zrotation Xrotation Yrotation
					End Site
					{
						OFFSET	 0.018651	 0.000000	 0.000000
					}
				}
			}
		}
		JOINT L_middle_Proximal
		{
			OFFSET	 0.090632	-0.006115	-0.003750
			CHANNELS 3 Zrotation Xrotation Yrotation
			JOINT L_middle_b
			{
				OFFSET	 0.037195	 0.000000	 0.000000
				CHANNELS 3 Zrotation Xrotation Yrotation
				JOINT L_middle_c
				{
					OFFSET	 0.021943	 0.000000	 0.000000
					CHANNELS 3 Zrotation Xrotation Yrotation
					End Site
					{
						OFFSET	 0.021943	 0.000000	 0.000000
					}
				}
			}
		}
		JOINT L_pinky_Proximal
		{
			OFFSET	 0.074015	-0.035449	-0.000417
			CHANNELS 3 Zrotation Xrotation Yrotation
			JOINT L_pinky_b
			{
				OFFSET	 0.027285	 0.000000	 0.000000
				CHANNELS 3 Zrotation Xrotation Yrotation
				JOINT L_pinky_c
				{
					OFFSET	 0.015093	 0.000000	 0.000000
					CHANNELS 3 Zrotation Xrotation Yrotation
					End Site
					{
						OFFSET	 0.015093	 0.000000	 0.000000
					}
				}
			}
		}
		JOINT L_ring_Proximal
		{
			OFFSET	 0.082801	-0.021859	-0.003750
			CHANNELS 3 Zrotation Xrotation Yrotation
			JOINT L_ring_b
			{
				OFFSET	 0.034478	 0.000000	 0.000000
				CHANNELS 3 Zrotation Xrotation Yrotation
				JOINT L_ring_c
				{
					OFFSET	 0.021377	 0.000000	 0.000000
					CHANNELS 3 Zrotation Xrotation Yrotation
					End Site
					{
						OFFSET	 0.021377	 0.000000	 0.000000
					}
				}
			}
		}
		JOINT L_thumb_Proximal
		{
			OFFSET	 0.030306	 0.018528	 0.004584
			CHANNELS 3 Zrotation Xrotation Yrotation
			JOINT L_thumb_a
			{
				OFFSET	 0.038520	 0.000000	 0.000000
				CHANNELS 3 Zrotation Xrotation Yrotation
				JOINT L_thumb_b
				{
					OFFSET	 0.026310	 0.000000	 0.000000
					CHANNELS 3 Zrotation Xrotation Yrotation
					End Site
					{
						OFFSET	 0.026310	 0.000000	 0.000000
					}
				}
			}
		}
	}
}
MOTION
Frames:    21
Frame Time: 0.01666667
 1.032371	-0.225245	 0.642877	 100.192700	 38.539250	 16.406990	 1.837710	 5.513880	 33.193490	-2.021630	 1.496723	-74.596210	-2.929530	 2.512866	-81.240880	 0.219966	-0.077313	-38.728530	-11.713350	-6.720017	-72.892100	 1.294786	-1.306672	-90.523820	 3.076961	-1.234710	-43.720810	-36.432440	-12.095420	-75.220460	-4.256451	 4.004797	-86.507490	-2.075302	 0.805382	-42.417170	-19.960720	-10.315740	-79.919120	 4.572644	-4.913454	-94.119960	 5.065229	-1.751372	-38.126690	 72.157040	 47.861020	-48.348790	-0.658930	 0.040651	-7.061513	 2.530735	-0.535131	-23.875010
 1.032243	-0.225434	 0.642919	 100.199800	 38.529430	 16.417910	 1.841601	 5.512585	 33.184670	-2.027145	 1.501138	-74.588750	-2.941435	 2.522984	-81.238610	 0.203035	-0.071328	-38.714580	-11.714660	-6.718801	-72.903410	 1.285883	-1.297888	-90.532420	 3.061542	-1.228705	-43.726840	-36.415950	-12.106380	-75.245560	-4.241943	 3.991140	-86.507140	-2.060079	 0.799403	-42.413330	-19.954780	-10.321600	-79.925790	 4.574678	-4.916181	-94.126180	 5.062706	-1.750778	-38.132450	 72.149040	 47.861150	-48.355080	-0.655541	 0.040399	-7.051754	 2.525848	-0.533770	-23.860670
 1.032531	-0.225148	 0.643065	 100.225900	 38.529980	 16.381600	 1.844131	 5.511937	 33.180230	-2.051970	 1.523180	-74.596790	-2.951098	 2.530344	-81.217760	 0.207179	-0.072742	-38.691280	-11.703540	-6.727585	-72.932110	 1.298252	-1.310340	-90.531240	 3.064055	-1.229551	-43.721560	-36.393830	-12.124230	-75.254360	-4.222616	 3.973542	-86.515690	-2.045628	 0.793866	-42.417130	-19.907850	-10.366250	-79.958660	 4.618790	-4.959958	-94.084420	 5.099748	-1.762803	-38.116420	 72.121430	 47.871810	-48.356020	-0.661993	 0.040749	-7.045938	 2.536555	-0.535612	-23.843440
 1.032641	-0.224972	 0.643045	 100.239500	 38.504260	 16.364270	 1.849378	 5.513178	 33.188730	-2.072627	 1.541495	-74.584770	-2.958964	 2.536571	-81.206250	 0.228469	-0.080135	-38.658230	-11.702900	-6.728179	-72.920040	 1.304677	-1.316824	-90.530950	 3.084333	-1.236918	-43.696830	-36.382320	-12.132940	-75.259940	-4.217352	 3.967749	-86.503790	-2.033264	 0.788755	-42.401790	-19.892860	-10.380460	-79.950040	 4.632358	-4.972452	-94.060480	 5.123490	-1.770280	-38.101710	 72.142900	 47.843320	-48.399690	-0.656491	 0.040415	-7.046158	 2.546590	-0.537448	-23.830700
 1.032621	-0.224853	 0.643074	 100.218800	 38.503590	 16.368440	 1.859564	 5.514184	 33.195590	-2.101158	 1.566188	-74.575090	-2.973482	 2.548059	-81.185070	 0.244126	-0.085561	-38.629670	-11.699910	-6.731277	-72.914150	 1.317348	-1.329384	-90.521090	 3.121226	-1.251542	-43.691140	-36.358710	-12.152130	-75.270160	-4.216540	 3.965531	-86.482690	-2.023530	 0.784690	-42.387440	-19.870180	-10.402650	-79.948710	 4.657048	-4.995881	-94.025480	 5.162562	-1.783451	-38.094740	 72.185260	 47.792720	-48.471290	-0.648500	 0.039831	-7.028777	 2.550610	-0.537176	-23.782050
 1.032547	-0.224816	 0.643060	 100.212500	 38.511010	 16.371790	 1.861216	 5.513439	 33.190500	-2.112498	 1.576021	-74.574210	-2.987432	 2.560009	-81.184810	 0.237119	-0.083108	-38.629150	-11.701800	-6.729619	-72.921570	 1.311905	-1.324162	-90.533160	 3.125175	-1.253315	-43.697190	-36.351520	-12.158850	-75.267520	-4.221623	 3.970484	-86.485260	-2.028393	 0.786545	-42.385890	-19.869990	-10.402910	-79.956140	 4.642333	-4.980601	-94.031340	 5.159302	-1.782497	-38.098160	 72.184770	 47.791750	-48.473490	-0.654188	 0.040089	-7.012200	 2.547904	-0.535706	-23.743300
 1.032463	-0.224952	 0.643047	 100.188900	 38.555730	 16.406910	 1.858619	 5.512842	 33.186410	-2.126675	 1.588996	-74.586880	-3.011352	 2.580042	-81.174770	 0.210829	-0.073909	-38.639170	-11.719800	-6.713849	-72.930570	 1.273710	-1.285924	-90.546910	 3.106521	-1.246059	-43.704310	-36.333630	-12.173280	-75.273430	-4.216699	 3.966363	-86.492440	-2.024308	 0.784879	-42.381700	-19.888780	-10.384450	-79.974330	 4.592451	-4.928402	-94.046450	 5.120676	-1.769784	-38.111260	 72.179120	 47.797500	-48.465980	-0.660283	 0.040337	-6.989961	 2.535408	-0.532068	-23.699560
 1.032641	-0.224884	 0.643009	 100.192100	 38.561260	 16.412180	 1.858304	 5.512770	 33.185920	-2.130750	 1.592820	-74.588370	-3.018819	 2.586132	-81.167980	 0.203747	-0.071450	-38.647190	-11.727130	-6.707629	-72.923390	 1.261279	-1.273450	-90.550180	 3.099184	-1.243054	-43.702560	-36.322680	-12.180460	-75.288120	-4.210863	 3.959926	-86.478730	-2.020061	 0.783184	-42.379790	-19.890970	-10.382320	-79.966190	 4.587410	-4.922320	-94.038570	 5.115233	-1.768385	-38.120900	 72.183330	 47.791740	-48.475200	-0.652642	 0.039797	-6.980618	 2.540950	-0.532906	-23.686500
 1.032617	-0.224793	 0.642967	 100.175500	 38.592830	 16.422060	 1.859864	 5.512260	 33.182430	-2.131293	 1.588783	-74.584950	-3.027149	 2.592865	-81.159050	 0.206549	-0.072455	-38.663430	-11.734890	-6.705702	-72.914240	 1.257733	-1.269750	-90.545420	 3.107589	-1.246370	-43.700650	-36.348060	-12.167190	-75.259860	-4.224687	 3.972166	-86.467970	-2.009807	 0.779327	-42.385490	-19.902920	-10.376310	-79.924260	 4.574969	-4.910984	-94.062150	 5.117657	-1.769069	-38.117670	 72.191300	 47.768580	-48.509540	-0.646310	 0.039098	-6.927193	 2.538199	-0.530925	-23.625940
 1.032644	-0.224836	 0.642875	 100.181000	 38.610540	 16.433180	 1.857058	 5.511980	 33.180490	-2.131064	 1.592630	-74.572780	-3.032354	 2.596671	-81.144870	 0.208194	-0.073077	-38.681340	-11.739140	-6.698538	-72.887300	 1.251192	-1.263031	-90.539830	 3.119941	-1.251821	-43.716300	-36.342080	-12.172140	-75.227390	-4.213487	 3.961515	-86.466200	-1.989841	 0.771647	-42.388530	-19.903420	-10.371620	-79.899910	 4.557271	-4.891152	-94.052260	 5.114207	-1.768469	-38.129650	 72.212130	 47.755790	-48.527510	-0.648964	 0.039177	-6.911697	 2.537316	-0.530011	-23.593540
 1.032620	-0.224750	 0.642636	 100.168500	 38.608900	 16.442330	 1.863056	 5.510182	 33.168220	-2.128978	 1.592382	-74.649660	-3.064199	 2.625277	-81.173860	 0.232705	-0.081850	-38.759810	-11.760290	-6.680764	-72.895550	 1.225596	-1.238318	-90.591580	 3.090166	-1.241800	-43.777600	-36.355810	-12.163190	-75.215350	-4.219863	 3.970043	-86.502650	-2.007101	 0.778699	-42.406520	-19.947100	-10.331030	-79.875600	 4.513850	-4.850732	-94.125270	 5.045651	-1.746774	-38.170850	 72.239280	 47.731930	-48.557490	-0.644099	 0.038824	-6.895712	 2.521980	-0.525836	-23.551690
 1.032611	-0.224795	 0.642628	 100.177400	 38.642460	 16.453260	 1.834360	 5.512240	 33.182320	-2.134278	 1.598860	-74.697780	-3.057049	 2.620553	-81.203910	 0.221733	-0.078038	-38.781000	-11.766190	-6.674176	-72.927600	 1.222169	-1.234945	-90.596120	 3.093341	-1.244077	-43.809800	-36.388530	-12.137780	-75.189220	-4.238472	 3.989134	-86.525530	-2.029939	 0.788120	-42.433650	-19.966280	-10.311740	-79.881970	 4.490404	-4.826864	-94.140750	 5.043563	-1.746468	-38.179310	 72.217160	 47.768400	-48.494870	-0.659908	 0.039936	-6.925638	 2.508937	-0.523547	-23.569920
 1.032632	-0.224531	 0.642539	 100.209700	 38.608920	 16.425790	 1.833258	 5.517363	 33.217350	-2.140037	 1.604002	-74.680920	-3.043180	 2.610760	-81.249330	 0.238441	-0.083924	-38.778180	-11.778900	-6.662224	-72.943670	 1.212758	-1.226041	-90.624560	 3.079990	-1.239281	-43.828320	-36.371300	-12.153270	-75.179210	-4.236074	 3.989234	-86.559120	-2.030385	 0.788057	-42.422070	-19.997490	-10.280720	-79.906850	 4.446157	-4.783336	-94.189070	 4.991847	-1.729668	-38.202510	 72.239040	 47.739680	-48.538640	-0.662602	 0.040303	-6.962007	 2.513486	-0.526560	-23.660560
 1.032473	-0.224567	 0.642457	 100.238200	 38.569000	 16.421420	 1.832111	 5.520154	 33.236470	-2.142508	 1.606001	-74.670640	-3.042834	 2.611311	-81.267780	 0.234582	-0.082564	-38.777400	-11.782710	-6.658609	-72.951520	 1.209491	-1.223108	-90.641340	 3.068690	-1.234993	-43.836560	-36.364970	-12.160010	-75.168910	-4.235529	 3.990696	-86.587530	-2.026327	 0.786445	-42.420350	-20.009440	-10.268940	-79.916780	 4.425346	-4.763361	-94.218020	 4.969794	-1.723010	-38.223010	 72.224260	 47.743610	-48.543670	-0.680086	 0.041480	-6.980395	 2.511580	-0.527222	-23.706500
 1.032626	-0.224396	 0.642476	 100.248800	 38.538990	 16.408150	 1.823019	 5.523909	 33.262160	-2.149266	 1.611620	-74.669780	-3.051000	 2.619135	-81.285420	 0.222816	-0.078433	-38.789560	-11.786120	-6.655960	-72.954130	 1.207642	-1.221830	-90.669360	 3.048947	-1.227418	-43.848830	-36.348120	-12.174560	-75.170730	-4.249715	 4.006551	-86.623170	-2.047351	 0.794656	-42.422660	-20.024020	-10.255090	-79.927800	 4.411162	-4.752844	-94.275470	 4.951035	-1.718054	-38.255000	 72.209330	 47.751630	-48.539000	-0.680505	 0.041618	-6.999409	 2.527162	-0.531427	-23.746670
 1.033033	-0.224315	 0.642518	 100.282700	 38.545060	 16.395660	 1.806657	 5.524299	 33.264850	-2.144067	 1.607068	-74.674410	-3.045526	 2.614142	-81.278790	 0.219091	-0.077081	-38.765990	-11.782130	-6.659287	-72.958930	 1.204910	-1.218979	-90.665260	 3.043963	-1.224909	-43.832360	-36.340900	-12.179850	-75.177720	-4.252573	 4.009010	-86.619670	-2.051007	 0.796247	-42.431070	-20.027870	-10.251250	-79.937980	 4.405511	-4.747216	-94.280680	 4.946327	-1.716240	-38.251370	 72.226230	 47.745240	-48.537530	-0.662380	 0.040406	-6.982610	 2.543333	-0.534572	-23.736420
 1.033100	-0.224503	 0.642614	 100.318400	 38.560060	 16.385320	 1.786043	 5.520952	 33.241880	-2.118661	 1.585091	-74.695630	-3.032027	 2.601273	-81.251390	 0.208056	-0.073122	-38.731290	-11.762700	-6.675373	-72.977520	 1.206609	-1.220456	-90.653430	 3.030194	-1.218160	-43.793000	-36.348190	-12.172690	-75.185000	-4.264171	 4.021098	-86.636290	-2.076790	 0.806680	-42.450950	-20.003870	-10.273590	-79.976200	 4.437835	-4.781793	-94.277680	 4.964089	-1.720635	-38.214870	 72.312960	 47.702920	-48.551680	-0.606979	 0.036810	-6.942032	 2.589709	-0.543015	-23.681380
 1.032944	-0.224702	 0.642574	 100.319400	 38.538750	 16.406990	 1.783177	 5.518559	 33.225530	-2.105452	 1.574641	-74.740980	-3.022200	 2.591966	-81.231990	 0.212979	-0.074879	-38.740230	-11.746950	-6.687741	-73.011200	 1.221777	-1.235714	-90.649380	 3.026300	-1.215864	-43.769510	-36.350090	-12.164700	-75.231770	-4.269465	 4.025522	-86.628040	-2.109357	 0.819353	-42.452350	-19.976400	-10.298630	-80.042950	 4.484015	-4.829138	-94.249080	 4.977999	-1.724150	-38.188010	 72.341420	 47.694570	-48.544250	-0.600727	 0.036336	-6.923981	 2.597521	-0.543909	-23.649620
 1.032711	-0.224717	 0.642551	 100.276400	 38.523780	 16.433720	 1.769129	 5.516570	 33.211930	-2.092237	 1.565898	-74.863760	-2.986514	 2.560723	-81.217950	 0.248803	-0.087528	-38.760000	-11.718400	-6.708655	-73.133180	 1.229020	-1.242813	-90.639680	 3.036771	-1.218819	-43.728580	-36.362160	-12.142990	-75.317860	-4.283751	 4.037807	-86.611410	-2.143008	 0.832543	-42.457630	-19.946940	-10.324270	-80.200960	 4.503282	-4.847396	-94.219770	 4.991654	-1.726463	-38.138200	 72.344890	 47.724160	-48.475820	-0.600745	 0.036193	-6.897942	 2.608212	-0.543533	-23.539480
 1.032704	-0.224703	 0.642592	 100.271100	 38.533130	 16.432490	 1.767239	 5.516325	 33.210270	-2.096655	 1.571524	-74.919300	-2.985340	 2.560184	-81.228570	 0.260425	-0.091587	-38.752130	-11.714880	-6.709731	-73.188610	 1.211375	-1.225145	-90.647540	 3.019785	-1.211917	-43.726230	-36.350770	-12.148700	-75.346410	-4.284552	 4.038670	-86.612790	-2.156986	 0.837736	-42.446340	-19.937770	-10.332340	-80.232820	 4.495102	-4.838178	-94.215110	 4.980899	-1.722762	-38.138680	 72.334810	 47.742370	-48.446050	-0.599894	 0.036180	-6.904053	 2.615356	-0.544887	-23.534050
 1.032758	-0.224808	 0.642894	 100.308500	 38.592070	 16.407880	 1.764881	 5.516806	 33.213510	-2.107109	 1.582672	-74.989460	-2.997043	 2.570506	-81.234610	 0.240735	-0.084628	-38.738910	-11.713150	-6.709598	-73.242750	 1.200165	-1.213482	-90.632290	 2.993184	-1.201030	-43.719270	-36.331180	-12.156260	-75.414930	-4.266148	 4.019475	-86.586540	-2.156824	 0.837203	-42.425150	-19.921010	-10.347650	-80.285300	 4.485977	-4.827438	-94.204090	 4.958532	-1.715456	-38.147730	 72.301070	 47.774800	-48.405380	-0.602308	 0.036378	-6.915887	 2.607539	-0.543871	-23.559770
